HIERARCHY
ROOT joint_Root
{
	OFFSET 0.0 0.0 0.0
	CHANNELS 6 Xposition Yposition Zposition Zrotation Xrotation Yrotation 
	JOINT Hips
	{
		OFFSET 4.5925 91.4895 -427.239
		CHANNELS 6 Xposition Yposition Zposition Zrotation Xrotation Yrotation 
		JOINT Spine
		{
			OFFSET 15.7357 0.0 0.0
			CHANNELS 6 Xposition Yposition Zposition Zrotation Xrotation Yrotation 
			JOINT Chest
			{
				OFFSET 8.98455 -0.406207 0.0
				CHANNELS 6 Xposition Yposition Zposition Zrotation Xrotation Yrotation 
				JOINT Neck
				{
					OFFSET 16.3773 0.0 0.0
					CHANNELS 6 Xposition Yposition Zposition Zrotation Xrotation Yrotation 
					JOINT Head
					{
						OFFSET 6.45672 0.0 0.0
						CHANNELS 6 Xposition Yposition Zposition Zrotation Xrotation Yrotation 
						End Site
						{
							OFFSET 0.0 0.0 0.0
						}
					}
				}
				JOINT Shoulder_L
				{
					OFFSET 12.9942 -0.242716 4.98039
					CHANNELS 6 Xposition Yposition Zposition Zrotation Xrotation Yrotation 
					JOINT UpperArm_L
					{
						OFFSET 5.34809 0.0 0.0
						CHANNELS 6 Xposition Yposition Zposition Zrotation Xrotation Yrotation 
						JOINT LowerArm_L
						{
							OFFSET 24.3286 1.87007e-05 0.0
							CHANNELS 6 Xposition Yposition Zposition Zrotation Xrotation Yrotation 
							JOINT Hand_L
							{
								OFFSET 22.2916 0.0 0.0
								CHANNELS 6 Xposition Yposition Zposition Zrotation Xrotation Yrotation 
								End Site
								{
									OFFSET 0.0 0.0 0.0
								}
							}
						}
					}
				}
				JOINT Shoulder_R
				{
					OFFSET 12.9945 -0.242716 -4.98039
					CHANNELS 6 Xposition Yposition Zposition Zrotation Xrotation Yrotation 
					JOINT UpperArm_R
					{
						OFFSET -5.34813 0.0 0.0
						CHANNELS 6 Xposition Yposition Zposition Zrotation Xrotation Yrotation 
						JOINT LowerArm_R
						{
							OFFSET -24.3289 0.000322201 0.0
							CHANNELS 6 Xposition Yposition Zposition Zrotation Xrotation Yrotation 
							JOINT Hand_R
							{
								OFFSET -22.2915 -0.000108084 0.0
								CHANNELS 6 Xposition Yposition Zposition Zrotation Xrotation Yrotation 
								End Site
								{
									OFFSET 0.0 0.0 0.0
								}
							}
						}
					}
				}
			}
		}
		JOINT UpperLeg_L
		{
			OFFSET -2.19248 -6.46944 0.0
			CHANNELS 6 Xposition Yposition Zposition Zrotation Xrotation Yrotation 
			JOINT LowerLeg_L
			{
				OFFSET 39.0811 0.0 -1.23785e-05
				CHANNELS 6 Xposition Yposition Zposition Zrotation Xrotation Yrotation 
				JOINT Foot_L
				{
					OFFSET 40.9854 0.0 -1.26872e-05
					CHANNELS 6 Xposition Yposition Zposition Zrotation Xrotation Yrotation 
					JOINT Toes_L
					{
						OFFSET 11.7543 0.0 0.0
						CHANNELS 6 Xposition Yposition Zposition Zrotation Xrotation Yrotation 
						End Site
						{
							OFFSET 0.0 0.0 0.0
						}
					}
				}
			}
		}
		JOINT UpperLeg_R
		{
			OFFSET -2.19251 6.46944 0.0
			CHANNELS 6 Xposition Yposition Zposition Zrotation Xrotation Yrotation 
			JOINT LowerLeg_R
			{
				OFFSET -39.0811 -0.00228153 -0.0401928
				CHANNELS 6 Xposition Yposition Zposition Zrotation Xrotation Yrotation 
				JOINT Foot_R
				{
					OFFSET -40.9854 0.0 0.0
					CHANNELS 6 Xposition Yposition Zposition Zrotation Xrotation Yrotation 
					JOINT Toes_R
					{
						OFFSET -11.7543 0.0 0.0
						CHANNELS 6 Xposition Yposition Zposition Zrotation Xrotation Yrotation 
						End Site
						{
							OFFSET 0.0 0.0 0.0
						}
					}
				}
			}
		}
	}
}
MOTION
Frames:	4
Frame Time:	0.0333333
0.000000 0.000000 0.000000 0.000000 0.000000 -0.000000 0.884081 91.460800 -0.232888 89.616800 -5.345930 5.405770 15.735700 0.000005 -0.000001 73.005500 85.002000 -76.150200 8.984550 -0.406207 -0.000000 1.727830 -2.754420 -6.242870 16.377300 -0.000001 -0.000001 7.932050 -2.068080 5.596860 6.456720 -0.000001 -0.000000 0.118532 4.012500 0.417792 12.994200 -0.242716 4.980390 -91.340300 3.797150 -70.542200 5.348090 -0.000007 -0.000001 -67.476500 29.497600 -6.663360 24.328600 0.000019 0.000005 6.076770 17.482700 -19.512200 22.291600 -0.000001 0.000005 9.996550 5.176320 3.304280 12.994500 -0.242716 -4.980390 93.285200 -8.021490 -67.642100 -5.348130 -0.000001 -0.000004 -73.437700 -64.490600 -109.436000 -24.328900 0.000322 -0.000009 -14.434600 -5.753910 -68.775400 -22.291500 -0.000108 -0.000004 38.073800 5.641270 -12.898500 -2.192480 -6.469440 -0.000000 -176.874000 -14.457100 -3.680300 39.081100 -0.000007 -0.000012 -0.139701 0.267139 27.607600 40.985400 -0.000006 -0.000013 1.164640 4.730850 -68.517800 11.754300 -0.000000 0.000003 -0.000239 -0.002149 -16.658200 -2.192510 6.469440 -0.000001 176.293000 15.663900 175.767000 -39.081100 -0.002282 -0.040193 0.019096 -0.029756 27.952700 -40.985400 0.000008 0.000006 5.502790 11.125800 -68.962000 -11.754300 -0.000006 -0.000006 -0.004825 -0.059765 -19.004700
0.000000 0.000000 0.000000 0.000000 0.000000 -0.000000 0.915187 91.511000 -0.327031 89.657200 -4.893300 4.910130 15.735700 0.000005 -0.000001 75.845600 85.100700 -78.710000 8.984550 -0.406207 -0.000000 1.686970 -2.242970 -5.690810 16.377300 -0.000001 -0.000001 8.149380 -2.227890 6.374020 6.456720 -0.000001 -0.000000 -0.132366 4.066150 -0.874281 12.994200 -0.242716 4.980390 -91.286700 3.652930 -70.581500 5.348090 -0.000007 -0.000001 -67.715600 30.030600 -7.098490 24.328600 0.000019 0.000005 6.333030 17.388600 -20.374100 22.291600 -0.000001 0.000005 11.988600 5.163840 3.608740 12.994500 -0.242716 -4.980390 94.130100 -9.509710 -66.393900 -5.348130 -0.000001 -0.000004 -74.893600 -69.406300 -114.917000 -24.328900 0.000322 -0.000009 -6.913930 -1.948880 -74.362700 -22.291500 -0.000108 -0.000004 52.584400 5.667370 -27.825500 -2.192480 -6.469440 -0.000000 -177.089000 -14.257100 -4.206320 39.081100 -0.000007 -0.000012 -0.135722 0.262228 27.365000 40.985400 -0.000006 -0.000013 1.247820 4.988720 -68.293400 11.754300 -0.000000 0.000003 -0.000229 -0.002074 -16.655500 -2.192510 6.469440 -0.000001 176.384000 15.914200 175.312000 -39.081100 -0.002282 -0.040193 0.019443 -0.030665 27.753700 -40.985400 0.000008 0.000006 5.412000 10.921700 -68.747000 -11.754300 -0.000006 -0.000006 -0.004886 -0.060359 -19.028900
0.000000 0.000000 0.000000 0.000000 0.000000 -0.000000 0.789191 91.562400 -0.364896 89.540100 -4.191370 4.557300 15.735700 0.000005 -0.000001 75.450000 85.159300 -78.346700 8.984550 -0.406207 -0.000000 1.555370 -2.274060 -5.757750 16.377300 -0.000001 -0.000001 8.376300 -2.536360 7.345590 6.456720 -0.000001 -0.000000 -0.500918 4.095860 -0.866634 12.994200 -0.242716 4.980390 -91.187000 3.346850 -70.459000 5.348090 -0.000007 -0.000001 -67.970200 29.262700 -7.028780 24.328600 0.000019 0.000005 6.115470 15.971200 -21.275900 22.291600 -0.000001 0.000005 14.671900 5.161380 3.670130 12.994500 -0.242716 -4.980390 94.615300 -9.858100 -64.755500 -5.348130 -0.000001 -0.000004 -65.099500 -70.965600 -104.776000 -24.328900 0.000322 -0.000009 2.338390 0.700212 -73.273700 -22.291500 -0.000108 -0.000004 67.977900 5.655000 -26.731800 -2.192480 -6.469440 -0.000000 -177.049000 -13.604400 -4.610520 39.081100 -0.000007 -0.000012 -0.135271 0.263219 27.199200 40.985400 -0.000006 -0.000013 1.169680 5.033860 -68.096000 11.754300 -0.000000 0.000003 -0.000240 -0.002160 -16.658600 -2.192510 6.469440 -0.000001 176.624000 16.664000 175.129000 -39.081100 -0.002282 -0.040193 0.019741 -0.031552 27.513300 -40.985400 0.000008 0.000006 5.468100 10.899900 -68.517200 -11.754300 -0.000006 -0.000006 -0.005009 -0.061550 -19.077400
0.000000 0.000000 0.000000 0.000000 0.000000 -0.000000 0.642666 91.558500 -0.310949 89.315200 -3.908440 4.718640 15.735700 0.000005 -0.000001 72.923100 85.062700 -75.993600 8.984550 -0.406207 -0.000000 1.609460 -2.733360 -6.097620 16.377300 -0.000001 -0.000001 8.381240 -2.463140 7.247900 6.456720 -0.000001 -0.000000 -0.893840 3.858280 -0.159945 12.994200 -0.242716 4.980390 -91.263200 3.513230 -70.210300 5.348090 -0.000007 -0.000001 -67.953800 27.725600 -6.108380 24.328600 0.000019 0.000005 5.637970 13.822200 -22.452500 22.291600 -0.000001 0.000005 16.856900 5.170110 3.460060 12.994500 -0.242716 -4.980390 94.084100 -8.969430 -65.394500 -5.348130 -0.000001 -0.000004 -46.873400 -70.010000 -84.033500 -24.328900 0.000322 -0.000009 -5.041760 -2.578440 -63.115500 -22.291500 -0.000108 -0.000004 56.021200 5.686220 -24.869200 -2.192480 -6.469440 -0.000000 -176.680000 -13.396800 -4.491030 39.081100 -0.000007 -0.000012 -0.138737 0.268213 27.351200 40.985400 -0.000006 -0.000013 1.090780 5.142600 -68.174100 11.754300 -0.000000 0.000003 -0.000230 -0.002079 -16.655700 -2.192510 6.469440 -0.000001 176.776000 17.294400 175.471000 -39.081100 -0.002282 -0.040193 0.018517 -0.029322 27.415900 -40.985400 0.000008 0.000006 5.526820 11.260300 -68.489500 -11.754300 -0.000006 -0.000006 -0.004852 -0.060029 -19.015400
